<?xml version="1.0" standalone="no"?>
<!DOCTYPE svg PUBLIC "-//W3C//DTD SVG 20010904//EN"
 "http://www.w3.org/TR/2001/REC-SVG-20010904/DTD/svg10.dtd">
<svg version="1.0" xmlns="http://www.w3.org/2000/svg"
 width="500.000000pt" height="500.000000pt" viewBox="0 0 500.000000 500.000000"
 preserveAspectRatio="xMidYMid meet">
<metadata>
Created by potrace 1.11, written by Peter Selinger 2001-2013
</metadata>
<g transform="translate(0.000000,500.000000) scale(0.100000,-0.100000)"
fill="#000000" stroke="none">
<path d="M642 4984 c-156 -34 -285 -106 -403 -223 -120 -120 -190 -248 -224
-411 -23 -108 -23 -3592 0 -3700 34 -163 104 -291 224 -411 120 -120 248 -190
411 -224 108 -23 3592 -23 3700 0 163 34 291 104 411 224 120 120 190 248 224
411 23 108 23 3592 0 3700 -34 163 -104 291 -224 411 -90 90 -162 138 -273
182 -149 60 -46 57 -1996 56 -1474 -1 -1798 -3 -1850 -15z m1816 -1338 c672
-526 1222 -960 1221 -964 0 -7 -734 -580 -782 -611 -19 -13 -18 -11 4 15 207
230 529 598 529 605 0 9 26 -9 -906 627 l-721 493 -274 371 c-352 478 -337
456 -314 437 11 -9 570 -447 1243 -973z m0 -410 c748 -516 781 -541 768 -560
-7 -12 -20 -22 -27 -23 -8 -2 -369 192 -804 430 l-789 433 -249 315 c-136 173
-252 322 -257 331 -6 9 122 -74 283 -185 161 -111 645 -445 1075 -741z m-375
-121 c576 -313 1047 -572 1047 -575 0 -3 -10 -17 -23 -33 l-22 -27 -838 357
-839 357 -231 255 c-314 346 -294 320 -210 274 38 -21 540 -294 1116 -608z
m-169 -259 c603 -258 1096 -472 1096 -476 0 -3 -6 -14 -13 -24 -12 -16 -66 -1
-818 237 l-806 254 -274 228 c-286 237 -311 260 -293 254 6 -2 505 -215 1108
-473z m121 -316 c473 -161 862 -294 863 -296 11 -8 -12 -44 -28 -44 -26 0
-1509 329 -1524 338 -31 18 -626 444 -626 447 0 2 102 -31 228 -74 125 -43
614 -210 1087 -371z m305 -335 c245 -42 448 -77 452 -78 4 -1 -28 -60 -72
-132 -81 -132 -88 -149 -70 -160 6 -4 134 75 285 174 l275 181 336 -127 337
-127 28 -47 c17 -27 53 -63 83 -84 61 -42 78 -83 54 -132 -13 -26 -173 -121
-184 -110 -3 3 0 15 6 27 6 11 10 33 8 48 -4 32 -31 43 -162 66 -68 12 -97 13
-139 4 -47 -10 -75 -7 -234 21 l-181 32 -77 -26 c-60 -21 -79 -24 -90 -15 -12
10 -22 5 -51 -24 -32 -32 -35 -40 -29 -72 9 -49 91 -298 111 -336 17 -34 13
-34 149 -4 121 27 144 22 247 -46 61 -41 72 -53 63 -68 -3 -5 -21 2 -41 15
-117 80 -287 45 -514 -106 -66 -44 -129 -92 -140 -106 -15 -19 -24 -23 -32
-15 -8 8 6 31 51 85 57 69 61 77 61 124 0 38 -7 60 -27 91 -31 45 -186 234
-206 250 -9 8 -40 7 -107 -3 -134 -21 -144 -19 -79 15 63 32 93 60 64 60 -9 0
-86 -18 -172 -41 -85 -22 -157 -38 -159 -36 -3 3 42 30 99 61 97 52 144 86
119 86 -6 0 -95 -29 -198 -65 -104 -35 -190 -63 -192 -61 -1 2 77 48 174 102
97 53 185 105 197 114 20 17 20 18 -58 203 l-78 187 -236 1 -236 1 140 19 c76
10 146 21 154 24 25 10 -5 29 -109 69 -90 36 -129 55 -85 43 11 -3 220 -40
465 -82z m-150 -153 c0 -5 -205 -52 -456 -106 l-455 -97 -184 23 c-101 12
-182 25 -179 28 6 5 1187 157 1242 159 17 0 32 -3 32 -7z m37 -88 c2 -5 -187
-69 -420 -142 l-423 -133 -154 7 c-85 4 -165 10 -178 13 -22 6 1139 272 1162
267 6 -1 11 -7 13 -12z m32 -88 c-2 -2 -168 -74 -369 -161 l-365 -157 -175 -8
c-96 -5 -176 -7 -177 -6 -2 1 165 55 370 119 204 64 449 141 542 171 149 46
190 57 174 42z m6 -94 c-16 -10 -165 -90 -330 -179 l-300 -160 -130 -12 c-71
-7 -148 -14 -170 -17 -22 -3 175 82 445 190 458 184 556 220 485 178z m1410
-747 c94 -15 186 -48 221 -78 27 -24 57 -97 45 -110 -4 -4 -242 -4 -529 0
-520 6 -522 6 -522 27 0 94 161 162 415 175 159 8 265 4 370 -14z m455 -333
c51 -22 -3 -11 -93 18 -52 17 -105 30 -119 30 -13 0 -58 -11 -99 -26 -74 -25
-74 -25 -126 -7 -50 16 -58 16 -155 0 -123 -21 -209 -21 -263 -2 -52 19 -93
19 -169 -1 -62 -16 -71 -16 -296 4 -74 7 -75 7 -41 20 49 18 98 15 168 -10
l62 -22 96 23 c102 25 136 24 233 -3 48 -14 62 -14 135 0 135 26 188 28 231
10 52 -22 69 -20 156 13 l74 29 91 -33 c49 -18 101 -38 115 -43z m-180 -62 c0
-7 -185 -10 -535 -10 -350 0 -535 3 -535 10 0 7 185 10 535 10 350 0 535 -3
535 -10z m-399 -120 l83 -40 -374 2 -375 3 -3 23 c-8 53 -15 52 297 52 l290 0
82 -40z m404 0 l0 -35 -155 -2 -155 -2 75 39 c71 37 79 39 155 37 l80 -2 0
-35z m-5 -140 c0 -19 -9 -40 -25 -55 l-24 -25 -484 0 c-475 0 -485 0 -511 21
-19 15 -26 30 -26 55 l0 34 535 0 535 0 0 -30z"/>
</g>
</svg>
