<?xml version="1.0" encoding="UTF-8" standalone="no"?>
<!DOCTYPE svg PUBLIC "-//W3C//DTD SVG 20010904//EN"
              "http://www.w3.org/TR/2001/REC-SVG-20010904/DTD/svg10.dtd">

<svg xmlns="http://www.w3.org/2000/svg"
     width="10.9709in" height="16.6646in"
     viewBox="0 0 790 1200">
  <path id="logo"
        fill="#fff" stroke="#333C0F" stroke-width="5px"
        d="M 498.38,1161.50
           C 498.38,1161.50 499.00,1181.82 499.00,1181.82
             499.00,1181.82 503.18,1196.82 518.91,1198.64
             534.31,1199.44 721.12,1198.81 721.12,1198.81
             722.89,1198.81 732.12,1199.14 738.43,1188.39
             743.43,1180.52 741.50,1161.88 741.50,1161.88
             741.50,1161.88 498.38,1161.50 498.38,1161.50 Z
           M 506.39,1150.96
           C 493.75,1142.12 495.81,1125.88 506.33,1120.26
             506.33,1120.26 629.75,1120.12 629.75,1120.12
             629.75,1120.12 666.94,1142.00 666.94,1142.00
             666.94,1142.00 671.75,1142.03 671.81,1142.03
             671.88,1142.03 707.25,1120.06 707.25,1120.06
             707.25,1120.06 733.81,1120.31 733.88,1120.31
             733.88,1120.31 743.94,1121.69 744.06,1135.06
             744.19,1148.44 734.31,1150.88 734.31,1150.88
             734.31,1150.88 506.39,1150.96 506.39,1150.96 Z
           M 740.81,1098.12
           C 743.25,1101.38 741.91,1106.25 740.94,1108.03
             737.22,1107.78 501.11,1107.93 501.11,1107.93
             499.13,1107.70 497.91,1100.00 501.14,1098.05
             501.14,1098.05 740.22,1097.94 740.81,1098.12 Z
           M 462.09,1080.73
           C 464.36,1079.36 484.55,1068.18 494.27,1068.27
             504.00,1068.36 519.73,1080.73 528.36,1080.73
             537.00,1080.73 564.09,1069.64 574.64,1068.91
             585.18,1068.18 598.09,1079.18 612.55,1079.55
             627.00,1079.91 655.73,1068.73 667.27,1068.64
             678.82,1068.55 687.64,1079.00 694.64,1078.73
             701.64,1078.45 720.91,1067.45 726.27,1064.55
             731.64,1061.64 735.55,1063.18 735.55,1063.18
             735.55,1063.18 784.73,1084.36 787.73,1087.27
             790.73,1090.18 790.45,1094.45 782.91,1093.36
             775.36,1092.27 739.00,1077.00 732.45,1074.55
             726.82,1074.73 704.18,1087.73 694.18,1089.00
             684.18,1090.27 677.91,1080.36 668.64,1080.73
             659.36,1081.09 642.09,1089.45 614.82,1090.00
             587.55,1090.55 583.45,1080.55 573.82,1080.73
             564.54,1080.90 540.71,1089.41 540.55,1089.45
             536.27,1090.73 516.49,1091.33 511.41,1088.82
             506.33,1086.31 492.55,1084.00 489.09,1083.64
             485.64,1083.27 465.36,1086.18 462.27,1085.64
             460.73,1085.64 459.82,1082.09 462.09,1080.73 Z
           M 545.50,996.75
           C 568.25,988.62 602.12,987.00 627.62,986.75
             682.38,988.88 698.86,995.55 720.18,1007.27
             741.50,1019.00 741.09,1050.55 741.09,1050.55
             741.09,1050.55 500.12,1050.38 500.12,1050.38
             498.50,1015.62 522.75,1004.88 545.50,996.75 Z
           M 475.88,1023.88
           C 475.88,1023.88 468.25,1017.00 471.62,1007.50
             477.62,1003.12 496.50,973.00 496.50,973.00
             496.50,973.00 497.88,953.38 495.38,944.00
             492.88,934.62 445.25,867.25 445.25,867.25
             445.25,867.25 376.12,880.00 376.12,880.00
             376.12,880.00 423.88,848.62 423.88,848.62
             423.88,848.62 319.12,882.00 319.12,882.00
             319.12,882.00 397.62,829.62 397.62,829.62
             397.62,829.62 274.62,882.00 274.62,882.00
             274.62,882.00 381.00,808.38 386.88,804.88
             392.75,801.38 392.75,798.38 392.75,798.38
             392.75,798.38 359.50,700.62 359.50,700.50
             359.50,700.38 204.12,701.50 204.12,701.50
             204.12,701.50 324.00,683.25 324.00,683.25
             324.00,683.25 246.00,645.75 246.00,645.75
             246.00,645.75 488.25,696.88 488.25,696.75
             488.25,696.62 454.88,762.00 451.75,770.12
             448.62,778.25 453.00,776.50 453.00,776.50
             453.00,776.50 574.38,678.38 574.38,678.38
             574.38,678.38 726.88,748.75 726.88,748.75
             736.75,783.62 759.75,787.12 763.12,797.00
             766.50,806.88 765.38,824.38 761.50,829.00
             760.00,831.25 722.38,857.38 719.25,856.12
             716.12,854.88 716.38,850.38 718.25,845.12
             722.88,837.75 722.62,830.88 720.25,826.88
             717.88,822.88 675.38,814.50 669.12,813.62
             662.88,812.75 653.62,818.00 647.62,818.75
             641.62,819.50 573.50,804.00 567.12,802.25
             560.75,800.50 528.50,817.88 526.88,817.12
             525.25,816.38 525.50,810.00 525.50,810.00
             523.88,809.75 509.91,825.27 510.12,829.25
             510.34,833.23 535.50,936.88 541.25,933.12
             547.00,929.38 583.00,918.12 595.88,920.50
             608.75,922.88 640.00,950.88 640.00,954.12
             640.00,957.38 632.88,970.00 631.50,969.88
             630.12,969.75 630.12,968.00 630.12,967.62
             630.12,967.25 630.12,961.50 628.75,960.25
             627.38,959.00 618.00,946.12 592.12,946.75
             566.25,947.38 546.12,963.12 538.75,967.12
             531.38,971.12 485.50,1009.38 482.62,1013.25
             479.75,1017.12 481.00,1029.50 481.00,1029.50
             481.00,1029.50 477.75,1026.75 475.88,1023.88 Z
           M 374.50,790.25
           C 374.50,790.25 370.50,782.00 370.50,782.00
             370.50,782.00 130.00,899.75 130.00,899.75
             130.00,899.75 227.75,887.25 227.75,887.25
             227.75,887.25 374.50,790.25 374.50,790.25 Z
           M 99.00,862.25
           C 99.00,862.25 199.75,857.25 199.75,857.25
             199.75,857.25 367.75,768.75 367.75,768.75
             367.75,768.75 364.75,760.25 364.75,760.25
             364.75,760.25 99.00,862.25 99.00,862.25 Z
           M 64.75,814.50
           C 64.75,814.50 170.00,821.25 170.00,821.25
             170.00,821.25 361.00,747.75 361.00,747.75
             361.00,747.75 357.00,735.00 357.00,735.00
             357.00,735.00 64.75,814.50 64.75,814.50 Z
           M 34.25,760.75
           C 34.25,760.75 146.25,777.75 146.25,777.75
             146.25,777.75 353.00,723.75 353.00,723.75
             353.00,723.75 349.75,712.50 349.75,712.50
             349.75,712.50 34.25,760.75 34.25,760.75 Z
           M 478.67,744.00
           C 478.67,744.00 622.00,545.33 622.00,545.67
             622.00,546.00 261.33,243.67 261.33,243.67
             261.33,243.67 115.33,1.33 115.33,1.33
             115.33,1.33 684.33,547.67 684.33,547.67
             684.33,547.67 478.67,744.00 478.67,744.00 Z
           M 573.67,562.67
           C 573.67,562.67 585.33,544.00 585.33,544.00
             585.33,544.00 90.00,125.33 90.00,125.33
             90.00,125.33 217.67,324.00 217.67,324.00
             217.67,324.00 573.67,562.67 573.67,562.67 Z
           M 548.33,607.00
           C 548.33,607.00 561.00,584.67 561.00,584.67
             561.00,584.67 49.33,243.33 49.33,243.33
             49.33,243.33 174.00,411.67 174.00,411.67
             174.00,411.67 548.33,607.00 548.33,607.00 Z
           M 526.00,645.33
           C 526.00,645.33 535.33,628.00 535.67,628.00
             536.00,628.00 22.00,358.33 21.67,358.33
             21.33,358.33 167.33,506.67 167.33,506.67
             167.33,506.67 526.00,645.33 526.00,645.33 Z
           M 502.33,684.33
           C 502.33,684.33 511.33,666.00 511.33,666.00
             511.33,666.00 3.67,453.67 3.67,453.67
             3.67,453.67 162.67,592.33 162.67,592.33
             162.67,592.33 502.33,684.33 502.33,684.33 Z" />
</svg>
