<?xml version="1.0" encoding="UTF-8" standalone="no"?>
<!DOCTYPE svg PUBLIC "-//W3C//DTD SVG 20010904//EN"
              "http://www.w3.org/TR/2001/REC-SVG-20010904/DTD/svg10.dtd">

<svg xmlns="http://www.w3.org/2000/svg"
     width="27.7778in" height="15in"
     viewBox="0 0 2000 1080">
     <defs>
    </defs>
  <path id="Selection"
        fill="#112006" fill-opacity="0.7" stroke="none" stroke-width="5"
        d="M 1394.61,333.00
           C 1394.61,333.00 1391.16,326.10 1391.16,326.10
             1389.60,323.77 1387.58,322.74 1386.55,320.63
             1386.55,320.63 1381.22,307.00 1381.22,307.00
             1380.64,303.58 1381.48,299.84 1380.36,296.00
             1378.37,289.09 1373.12,285.99 1370.60,282.00
             1368.29,278.35 1369.60,276.10 1367.98,273.29
             1366.51,270.75 1360.05,266.23 1357.38,263.41
             1353.92,259.76 1344.88,242.84 1343.98,238.00
             1342.75,231.35 1347.82,232.80 1348.00,223.00
             1348.38,202.25 1345.62,206.20 1343.15,190.00
             1343.15,190.00 1343.15,171.00 1343.15,171.00
             1343.15,171.00 1343.96,161.00 1343.96,161.00
             1343.96,161.00 1343.96,147.00 1343.96,147.00
             1343.96,147.00 1345.00,134.00 1345.00,134.00
             1345.05,129.77 1344.61,120.60 1345.63,117.00
             1345.63,117.00 1360.75,88.00 1360.75,88.00
             1360.75,88.00 1371.06,65.00 1371.06,65.00
             1373.07,61.47 1382.00,51.08 1385.04,48.04
             1385.04,48.04 1399.00,35.96 1399.00,35.96
             1402.48,33.70 1407.19,31.84 1411.00,30.14
             1411.00,30.14 1422.00,25.10 1422.00,25.10
             1426.33,23.60 1437.21,21.54 1442.00,20.87
             1442.00,20.87 1455.00,19.09 1455.00,19.09
             1460.17,18.74 1462.20,19.37 1467.00,19.83
             1479.89,21.06 1482.51,20.68 1495.00,26.31
             1517.38,36.40 1542.32,54.19 1555.56,75.00
             1555.56,75.00 1568.79,101.00 1568.79,101.00
             1570.54,105.09 1570.14,108.89 1572.56,111.58
             1576.46,115.93 1584.05,115.32 1589.00,117.51
             1592.76,119.18 1596.11,123.70 1598.51,127.00
             1603.92,134.44 1612.53,153.93 1614.77,163.00
             1614.77,163.00 1620.01,186.91 1620.01,186.91
             1623.08,192.35 1632.06,195.35 1634.86,197.64
             1638.38,200.54 1640.73,210.47 1640.96,215.00
             1641.49,225.66 1637.17,227.58 1629.00,233.00
             1619.66,239.19 1605.09,244.73 1599.00,254.00
             1600.91,254.45 1601.98,254.78 1604.00,254.74
             1604.00,254.74 1632.00,250.77 1632.00,250.77
             1635.10,250.05 1637.73,248.23 1641.00,248.43
             1641.00,248.43 1663.00,255.41 1663.00,255.41
             1663.00,255.41 1673.00,257.49 1673.00,257.49
             1673.00,257.49 1682.00,260.47 1682.00,260.47
             1685.60,261.29 1688.77,260.68 1692.00,261.89
             1694.96,263.00 1697.26,265.27 1700.00,266.78
             1700.00,266.78 1706.00,269.48 1706.00,269.48
             1710.83,271.67 1715.63,274.01 1720.00,277.04
             1720.00,277.04 1727.00,282.01 1727.00,282.01
             1730.53,284.07 1735.25,284.14 1735.84,289.04
             1736.85,297.57 1725.50,300.58 1723.40,306.98
             1722.16,310.77 1726.37,313.00 1728.72,315.18
             1735.94,321.90 1736.21,318.11 1745.00,317.17
             1750.15,316.62 1753.10,317.31 1758.00,317.84
             1765.70,318.66 1783.35,321.90 1790.00,325.19
             1790.00,325.19 1808.00,337.28 1808.00,337.28
             1812.83,340.62 1819.91,344.97 1823.82,349.09
             1827.72,353.20 1833.95,363.80 1837.34,369.00
             1837.34,369.00 1860.42,404.00 1860.42,404.00
             1860.42,404.00 1875.53,435.00 1875.53,435.00
             1878.69,440.45 1881.89,441.97 1883.91,445.17
             1885.72,448.03 1885.69,450.98 1887.72,453.82
             1889.50,456.31 1891.83,457.20 1893.13,460.18
             1893.13,460.18 1896.01,475.00 1896.01,475.00
             1896.01,475.00 1901.87,496.00 1901.87,496.00
             1901.87,496.00 1906.08,519.00 1906.08,519.00
             1906.80,523.40 1908.12,526.24 1904.00,529.00
             1904.00,529.00 1906.95,543.00 1906.95,543.00
             1909.44,550.67 1914.74,564.25 1914.66,572.00
             1914.61,576.43 1912.63,579.95 1911.61,584.00
             1911.61,584.00 1910.68,594.00 1910.68,594.00
             1910.68,594.00 1908.09,604.00 1908.09,604.00
             1908.09,604.00 1906.72,618.00 1906.72,618.00
             1906.72,618.00 1901.58,652.00 1901.58,652.00
             1901.58,652.00 1895.81,690.00 1895.81,690.00
             1895.97,692.76 1896.17,697.49 1895.81,700.00
             1894.95,702.92 1893.31,705.44 1891.85,708.00
             1884.36,721.14 1883.14,721.33 1871.00,730.00
             1871.00,730.00 1860.00,737.70 1860.00,737.70
             1857.08,739.13 1845.81,740.40 1842.00,740.84
             1840.13,741.05 1836.14,740.93 1835.58,743.31
             1835.02,745.71 1839.06,749.90 1840.32,752.00
             1840.32,752.00 1843.84,760.00 1843.84,760.00
             1846.30,764.26 1849.31,766.33 1850.46,772.00
             1852.37,781.48 1842.17,785.41 1842.00,800.00
             1841.97,802.89 1841.72,807.23 1843.17,809.74
             1844.59,812.21 1846.32,812.22 1848.01,816.05
             1850.36,821.38 1850.99,826.27 1851.00,832.00
             1851.03,850.43 1851.40,882.72 1847.96,900.00
             1846.41,907.77 1838.09,911.82 1833.41,918.00
             1829.60,923.05 1826.31,935.54 1823.95,942.00
             1822.93,944.79 1820.52,950.21 1820.60,953.00
             1820.68,956.11 1824.69,962.65 1826.13,966.00
             1826.13,966.00 1834.80,988.00 1834.80,988.00
             1837.09,993.72 1840.26,1001.80 1839.82,1008.00
             1839.82,1008.00 1839.00,1036.00 1839.00,1036.00
             1839.00,1036.00 1838.17,1055.00 1838.17,1055.00
             1838.17,1055.00 1845.00,1079.92 1845.00,1079.92
             1845.00,1079.92 1445.00,1079.92 1445.00,1079.92
             1445.00,1079.92 1336.00,1079.92 1336.00,1079.92
             1334.45,1080.00 1331.45,1080.06 1330.04,1079.92
             1327.74,1079.08 1326.44,1077.89 1325.15,1075.94
             1321.30,1070.15 1324.94,1064.12 1325.87,1058.00
             1327.68,1045.97 1326.35,1044.43 1331.00,1032.00
             1331.00,1032.00 1309.00,1026.32 1309.00,1026.32
             1309.00,1026.32 1296.00,1025.07 1296.00,1025.07
             1296.00,1025.07 1282.00,1015.76 1282.00,1015.76
             1282.00,1015.76 1269.00,1012.00 1269.00,1012.00
             1269.12,998.51 1271.06,1006.23 1268.00,991.00
             1268.00,991.00 1257.00,993.00 1257.00,993.00
             1257.00,993.00 1258.43,970.00 1258.43,970.00
             1258.86,967.02 1260.74,960.48 1259.80,958.00
             1258.79,955.35 1253.45,950.52 1251.30,948.00
             1245.71,941.44 1245.01,939.32 1244.96,931.00
             1244.96,931.00 1244.96,917.00 1244.96,917.00
             1244.96,917.00 1244.00,903.00 1244.00,903.00
             1244.02,891.43 1246.32,895.29 1249.49,888.00
             1252.15,881.88 1253.00,872.64 1253.00,866.00
             1241.12,868.71 1241.06,871.50 1228.00,868.58
             1216.75,866.06 1214.83,862.18 1211.58,862.29
             1208.29,862.41 1197.73,870.35 1194.00,871.20
             1188.38,872.48 1172.27,859.00 1175.75,872.00
             1175.75,872.00 1177.00,877.00 1177.00,877.00
             1169.79,879.50 1165.82,882.68 1162.00,874.00
             1158.85,875.36 1147.45,881.69 1145.21,881.48
             1142.58,881.25 1141.03,878.01 1139.85,876.00
             1139.85,876.00 1130.00,858.00 1130.00,858.00
             1130.00,858.00 1122.00,861.00 1122.00,861.00
             1122.00,861.00 1120.00,854.00 1120.00,854.00
             1117.06,855.67 1113.30,857.90 1110.00,858.61
             1104.89,859.71 1089.15,857.85 1085.00,854.69
             1072.41,845.10 1071.90,838.00 1064.10,827.01
             1060.59,822.07 1057.44,821.11 1055.14,816.99
             1055.14,816.99 1050.58,802.13 1050.58,802.13
             1048.67,798.70 1046.06,798.69 1043.37,796.36
             1042.04,795.19 1037.63,789.54 1036.72,788.00
             1033.76,782.97 1035.73,778.18 1034.69,774.00
             1033.57,769.55 1029.17,766.64 1026.57,763.00
             1022.92,757.88 1023.16,750.38 1026.00,745.00
             1026.00,745.00 1010.00,753.00 1010.00,753.00
             1012.72,757.95 1014.04,756.36 1017.48,759.51
             1021.74,763.40 1028.02,773.07 1027.95,779.00
             1027.91,781.54 1027.09,787.83 1025.98,790.00
             1024.31,793.28 1021.25,795.12 1019.43,799.00
             1018.03,801.98 1018.18,806.84 1013.99,807.42
             1011.20,807.81 1010.26,805.97 1009.00,804.00
             1002.36,809.21 1002.03,808.54 1002.00,817.00
             999.53,816.21 995.49,813.98 993.15,814.75
             989.53,815.95 990.63,819.94 989.01,822.49
             987.87,824.27 984.74,826.26 983.02,827.67
             976.32,833.13 978.08,835.74 969.00,833.00
             966.81,835.92 966.59,835.71 963.00,836.00
             963.00,836.00 963.00,840.00 963.00,840.00
             963.00,840.00 958.00,839.00 958.00,839.00
             958.00,839.00 959.00,844.00 959.00,844.00
             959.00,844.00 952.00,847.00 952.00,847.00
             954.05,857.04 938.99,863.39 932.00,868.00
             929.38,869.73 925.09,873.05 922.00,873.26
             916.98,873.59 913.80,868.61 910.00,868.12
             905.65,867.56 901.30,872.73 896.04,869.39
             892.53,867.15 885.59,856.01 883.00,852.00
             881.75,850.05 879.79,847.49 880.44,845.04
             881.61,840.59 890.33,837.97 889.02,832.00
             888.66,830.39 882.93,818.77 881.77,818.02
             879.15,816.34 877.19,817.93 873.89,814.71
             873.89,814.71 861.00,798.00 861.00,798.00
             861.61,806.07 869.30,810.64 867.70,814.69
             866.71,817.19 862.34,817.05 859.00,818.34
             854.14,820.21 849.77,825.46 844.19,822.57
             842.71,821.80 841.46,820.54 840.91,818.94
             839.21,814.05 844.92,811.52 848.00,805.00
             848.00,805.00 813.00,825.40 813.00,825.40
             813.00,825.40 798.00,834.47 798.00,834.47
             798.00,834.47 790.00,837.07 790.00,837.07
             790.00,837.07 770.05,848.90 770.05,848.90
             770.05,848.90 762.87,855.91 762.87,855.91
             762.87,855.91 725.00,879.32 725.00,879.32
             725.00,879.32 698.00,895.00 698.00,895.00
             700.41,900.11 704.26,902.60 704.04,905.96
             703.77,909.87 697.02,913.32 694.00,915.19
             694.00,915.19 664.00,933.81 664.00,933.81
             664.00,933.81 547.00,1006.80 547.00,1006.80
             547.00,1006.80 518.00,1024.81 518.00,1024.81
             512.68,1028.11 508.67,1031.54 502.00,1030.89
             497.62,1030.46 495.11,1028.21 492.32,1024.98
             487.15,1018.99 481.43,1009.07 477.59,1002.00
             475.21,997.62 473.66,992.60 476.60,988.00
             479.78,983.04 490.64,977.09 496.00,973.81
             496.00,973.81 537.00,948.42 537.00,948.42
             537.00,948.42 595.00,912.60 595.00,912.60
             595.00,912.60 651.00,878.00 651.00,878.00
             657.75,873.93 670.28,865.12 677.00,863.00
             677.00,863.00 683.00,873.00 683.00,873.00
             689.33,871.41 693.52,867.99 699.00,864.58
             699.00,864.58 725.00,848.05 725.00,848.05
             725.00,848.05 748.00,833.56 748.00,833.56
             751.90,831.61 753.43,832.40 757.00,830.93
             757.00,830.93 772.00,822.40 772.00,822.40
             783.99,815.28 778.94,816.81 785.10,812.04
             785.10,812.04 796.00,805.00 796.00,805.00
             796.00,805.00 821.00,788.81 821.00,788.81
             823.13,787.49 829.78,783.87 830.31,781.48
             830.82,779.19 823.73,768.51 822.19,766.00
             822.19,766.00 797.80,726.00 797.80,726.00
             794.74,720.88 790.56,713.93 794.60,708.09
             799.98,700.32 807.86,703.62 815.00,706.00
             815.00,706.00 866.00,723.33 866.00,723.33
             868.75,724.25 871.34,724.96 873.72,726.69
             875.81,728.22 877.99,731.38 880.90,730.51
             887.72,728.48 878.51,719.75 882.42,715.57
             887.10,710.58 892.44,718.49 893.06,710.97
             893.06,710.97 893.06,708.00 893.06,708.00
             899.32,705.71 898.75,706.69 905.00,708.00
             906.05,695.64 910.28,698.63 918.00,700.00
             918.12,691.00 920.74,689.93 929.00,693.00
             929.11,683.40 932.70,682.30 941.00,686.00
             941.03,679.09 940.78,677.16 948.00,675.00
             948.00,675.00 950.00,679.00 950.00,679.00
             950.00,679.00 952.00,679.00 952.00,679.00
             954.10,670.49 954.74,664.75 965.00,671.00
             966.78,663.82 966.37,659.12 977.00,663.00
             977.11,653.75 980.84,652.97 989.00,656.00
             989.03,646.04 991.65,644.57 1001.00,648.00
             1001.03,639.22 1003.79,635.20 1012.00,642.00
             1013.05,637.68 1013.57,627.87 1021.00,631.69
             1022.16,632.29 1023.01,633.20 1024.00,634.00
             1024.02,629.33 1023.36,625.63 1029.02,624.43
             1030.87,624.03 1033.27,624.41 1034.69,623.69
             1036.95,622.54 1036.77,620.03 1038.00,618.22
             1040.43,615.28 1043.98,616.90 1047.00,618.22
             1047.62,615.77 1048.09,613.19 1049.58,611.38
             1052.14,608.27 1063.80,601.49 1067.90,602.36
             1071.91,603.21 1072.34,607.75 1075.33,607.25
             1077.76,606.85 1084.94,599.06 1087.00,597.00
             1084.59,596.80 1081.48,596.60 1079.28,595.52
             1073.60,592.71 1063.83,578.76 1065.94,572.00
             1067.46,567.15 1073.10,562.59 1077.00,559.63
             1077.00,559.63 1099.00,542.87 1099.00,542.87
             1101.92,540.68 1107.34,537.08 1108.98,533.96
             1112.77,526.72 1103.97,510.23 1100.99,503.00
             1099.47,499.31 1096.78,495.05 1098.55,491.04
             1100.41,486.80 1106.17,484.24 1110.00,481.99
             1110.00,481.99 1136.00,466.80 1136.00,466.80
             1139.26,464.86 1145.94,460.23 1149.79,461.64
             1154.31,463.30 1155.67,473.49 1162.18,479.53
             1169.16,486.00 1178.54,487.74 1182.00,489.85
             1184.04,491.09 1194.87,501.13 1196.28,503.08
             1196.28,503.08 1198.91,507.61 1198.91,507.61
             1201.85,511.48 1201.99,508.56 1207.00,517.00
             1209.72,511.74 1212.18,510.41 1218.00,511.00
             1219.13,504.24 1224.05,502.71 1230.00,505.00
             1230.21,498.52 1233.26,495.45 1240.00,496.00
             1240.00,496.00 1238.70,489.04 1238.70,489.04
             1238.70,489.04 1242.85,480.96 1242.85,480.96
             1242.85,480.96 1240.00,469.00 1240.00,469.00
             1240.00,469.00 1254.96,459.24 1254.96,459.24
             1254.96,459.24 1261.17,453.78 1261.17,453.78
             1261.17,453.78 1286.00,437.84 1286.00,437.84
             1290.50,435.64 1291.58,437.59 1295.00,436.98
             1295.00,436.98 1309.00,430.99 1309.00,430.99
             1309.00,430.99 1319.00,422.90 1319.00,422.90
             1325.34,418.51 1334.74,413.72 1342.00,411.05
             1342.00,411.05 1361.00,405.16 1361.00,405.16
             1361.00,405.16 1374.00,396.64 1374.00,396.64
             1378.52,394.17 1386.20,391.43 1387.88,385.91
             1387.88,385.91 1387.88,381.00 1387.88,381.00
             1388.68,370.45 1383.59,371.44 1377.95,363.00
             1371.95,354.02 1363.39,337.49 1361.00,327.00
             1361.00,327.00 1377.42,331.98 1377.42,331.98
             1377.42,331.98 1381.31,337.07 1381.31,337.07
             1381.31,337.07 1388.00,340.34 1388.00,340.34
             1388.00,340.34 1398.00,348.00 1398.00,348.00
             1398.00,348.00 1402.00,345.00 1402.00,345.00
             1399.93,338.88 1397.63,338.04 1394.61,333.00 Z
           M 1130.49,656.16
           C 1127.30,658.97 1112.83,661.14 1110.59,663.13
             1108.25,665.21 1110.23,666.82 1112.00,668.00
             1107.85,673.46 1105.68,674.56 1099.00,673.00
             1099.00,673.00 1098.00,676.00 1098.00,676.00
             1103.43,676.06 1105.97,677.18 1106.81,683.00
             1107.21,685.71 1106.49,689.95 1109.43,691.43
             1111.08,692.26 1114.97,691.86 1117.00,692.14
             1120.62,692.64 1121.88,694.06 1125.00,694.70
             1128.23,695.37 1132.07,694.52 1136.00,695.63
             1144.93,698.17 1156.56,708.21 1166.00,710.00
             1166.00,710.00 1168.29,691.00 1168.29,691.00
             1168.29,691.00 1169.47,680.00 1169.47,680.00
             1169.47,680.00 1160.81,665.00 1160.81,665.00
             1160.81,665.00 1151.82,652.99 1151.82,652.99
             1151.82,652.99 1134.00,649.00 1134.00,649.00
             1132.91,651.34 1132.37,654.51 1130.49,656.16 Z
           M 1097.00,676.00
           C 1097.00,676.00 1098.00,677.00 1098.00,677.00
             1098.00,677.00 1098.00,676.00 1098.00,676.00
             1098.00,676.00 1097.00,676.00 1097.00,676.00 Z
           M 826.41,739.00
           C 826.29,742.01 823.57,743.78 822.50,746.28
             820.91,749.99 822.67,752.97 824.73,756.00
             826.10,758.02 828.49,761.63 831.09,761.99
             833.17,762.27 837.17,759.90 839.00,758.83
             846.68,754.33 845.05,753.32 857.00,747.24
             860.25,745.59 869.60,741.01 869.66,736.98
             869.74,731.76 859.81,730.02 856.00,728.81
             849.59,726.76 832.97,719.52 827.00,721.74
             823.74,722.95 821.97,725.32 820.00,728.00
             822.02,730.54 826.54,735.69 826.41,739.00 Z
           M 922.37,785.02
           C 919.76,783.41 918.87,780.38 914.05,782.30
             909.58,784.09 908.67,790.59 903.01,789.63
             896.37,788.51 898.59,781.55 889.00,779.00
             885.92,784.53 885.33,785.50 880.00,789.00
             880.00,789.00 887.00,805.00 887.00,805.00
             891.85,802.43 900.08,797.01 905.00,796.10
             915.61,794.45 916.87,799.30 930.00,796.10
             929.87,785.55 927.04,787.88 922.37,785.02 Z
           M 879.00,809.00
           C 880.41,802.15 875.82,799.04 871.00,795.00
             868.68,800.14 875.24,806.06 879.00,809.00 Z" />
</svg>
