<?xml version="1.0" encoding="UTF-8" standalone="no"?>
<!DOCTYPE svg PUBLIC "-//W3C//DTD SVG 20010904//EN"
              "http://www.w3.org/TR/2001/REC-SVG-20010904/DTD/svg10.dtd">

<svg xmlns="http://www.w3.org/2000/svg"
     width="2.47222in" height="1.13889in"
     viewBox="0 0 178 82">
  <path id="Selection #2"
        fill="#283227" stroke="#fff" stroke-width="2"
        d="M 18.42,6.46
           C 21.60,5.62 22.09,2.37 28.00,3.06
             28.00,3.06 55.00,9.00 55.00,9.00
             55.00,9.00 55.00,2.00 55.00,2.00
             55.00,2.00 63.00,8.00 63.00,8.00
             63.00,8.00 67.30,3.11 67.30,3.11
             67.30,3.11 85.00,5.98 85.00,5.98
             85.00,5.98 92.96,3.01 92.96,3.01
             92.96,3.01 100.09,5.23 100.09,5.23
             100.09,5.23 114.90,2.42 114.90,2.42
             114.90,2.42 122.10,5.52 122.10,5.52
             122.10,5.52 141.00,3.00 141.00,3.00
             141.00,3.00 141.00,9.00 141.00,9.00
             141.00,9.00 160.00,3.00 160.00,3.00
             160.34,7.16 160.66,10.56 163.31,14.00
             165.47,16.80 169.97,20.05 170.85,22.17
             172.37,25.88 168.35,27.89 168.59,33.00
             168.59,33.00 173.00,55.00 173.00,55.00
             173.00,55.00 167.00,53.00 167.00,53.00
             167.00,53.00 172.00,62.00 172.00,62.00
             172.00,62.00 168.00,64.00 168.00,64.00
             168.00,64.00 176.00,75.00 176.00,75.00
             176.00,75.00 156.00,81.00 156.00,81.00
             151.66,75.37 149.56,80.24 144.00,80.07
             141.44,79.99 138.35,78.12 136.00,77.00
             136.00,77.00 136.00,81.00 136.00,81.00
             136.00,81.00 113.00,78.75 113.00,78.75
             113.00,78.75 105.00,80.11 105.00,80.11
             105.00,80.11 96.00,78.85 96.00,78.85
             96.00,78.85 64.00,81.00 64.00,81.00
             64.00,81.00 65.00,79.00 65.00,79.00
             65.00,79.00 25.00,81.00 25.00,81.00
             25.00,81.00 25.00,76.00 25.00,76.00
             25.00,76.00 8.00,78.00 8.00,78.00
             8.00,78.00 12.00,72.00 12.00,72.00
             12.00,72.00 3.00,71.00 3.00,71.00
             4.38,67.80 9.47,59.03 8.59,56.09
             7.80,53.42 4.31,51.88 4.11,48.96
             3.83,45.01 9.85,41.46 9.84,37.00
             9.84,33.87 5.04,28.16 3.00,21.00
             3.00,21.00 13.00,22.00 13.00,22.00
             13.00,22.00 9.00,4.00 9.00,4.00
             11.12,4.71 16.45,6.98 18.42,6.46 Z
           M 166.00,52.00
           C 166.00,52.00 167.00,53.00 167.00,53.00
             167.00,53.00 167.00,52.00 167.00,52.00
             167.00,52.00 166.00,52.00 166.00,52.00 Z" />
</svg>
